<?xml version="1.0" standalone="no"?>
<!DOCTYPE svg PUBLIC "-//W3C//DTD SVG 20010904//EN"
 "http://www.w3.org/TR/2001/REC-SVG-20010904/DTD/svg10.dtd">
<svg version="1.0" xmlns="http://www.w3.org/2000/svg"
 width="700.000000pt" height="700.000000pt" viewBox="0 0 700.000000 700.000000"
 preserveAspectRatio="xMidYMid meet">
<metadata>
Created by potrace 1.11, written by Peter Selinger 2001-2013
</metadata>
<g transform="translate(0.000000,700.000000) scale(0.100000,-0.100000)"
fill="#000000" stroke="none">
<path d="M2628 4372 c-16 -2 -28 -9 -29 -15 -5 -59 -3 -99 5 -105 6 -3 113 -5
238 -5 l228 1 1 -502 c0 -529 4 -586 47 -693 63 -155 187 -267 372 -336 59
-23 198 -60 260 -71 253 -43 370 -51 765 -51 294 0 445 5 547 20 208 28 224
31 319 55 288 71 453 201 527 415 32 94 35 133 36 665 l1 495 210 2 c116 1
221 2 235 2 24 1 26 4 26 61 0 51 -3 60 -18 61 -10 0 -263 0 -563 0 -300 0
-574 0 -609 0 l-63 -1 -1 -60 c0 -58 1 -60 26 -61 15 0 120 -1 235 -1 203 0
207 -1 212 -22 2 -11 3 -244 1 -516 -3 -428 -5 -503 -20 -554 -72 -256 -276
-368 -731 -404 -177 -14 -608 -6 -700 13 -11 3 -38 7 -60 10 -158 22 -318 85
-399 156 -69 61 -123 163 -143 270 -4 24 -8 269 -8 544 l0 500 223 2 c122 1
228 2 235 2 9 1 13 19 14 61 l0 60 -31 1 c-154 2 -1367 3 -1388 1z"/>
</g>
</svg>
